# xmcd
#
# Track frame offsets:
#	150
#	19409
#	33799
#	47205
#	62822
#	73916
#	89557
#	107823
#	124611
#	137007
#	153248
#	167837
#	187606
#	206429
#	220982
#
# Disc length: 3214 seconds
#
# Revision: 1
# Processed by: cddbd v1.5.1PL0 Copyright (c) Steve Scherf et al.
# Submitted via: audiograbber 1.83.01
#
DISCID=d40c8c0f
DTITLE=Various Artist - CB Karaoke 80133
DYEAR=1993
DGENRE=Country
TTITLE0=Garth Brooks - Ain't Going Down (till the sun comes up)
TTITLE1=Sammy Kershaw - She Don't Know She's Beautiful
TTITLE2=Lorrie Morgan - What Part Of No
TTITLE3=Garth Brooks - Somewhere Other Than The Night
TTITLE4=Gearge Strait - Heartland
TTITLE5=Reba McEntire - The Heart Won't Lie
TTITLE6=Doug Stone - Too Busy Being In Love
TTITLE7=Travis Tritt - Can I Trust You With My Heart
TTITLE8=Martina McBride - My Baby Loves Me
TTITLE9=Clint Black - When My Ship Comes In
TTITLE10=Tracy Lawrence - Alibis
TTITLE11=Trisha Yearwood and Don Henley - Walkaway Joe
TTITLE12=John Michael Montgomery - I Love The Way You Love Me
TTITLE13=John Anderson - Money In The Bank
TTITLE14=Wynonna - My Strongest Weakness
EXTD=
EXTT0=
EXTT1=
EXTT2=
EXTT3=
EXTT4=
EXTT5=
EXTT6=
EXTT7=
EXTT8=
EXTT9=
EXTT10=
EXTT11=
EXTT12=
EXTT13=
EXTT14=
PLAYORDER=
